<svg width="29.61" height="44.33" xmlns="http://www.w3.org/2000/svg">

 <title/>
 <g>
  <title>background</title>
  <rect fill="none" id="canvas_background" height="402" width="582" y="-1" x="-1"/>
 </g>
 <g>
  <title>Layer 1</title>
  <path stroke="#ffffff" fill="#0fffff" id="svg_1" d="m14.8,44.33a1,1 0 0 1 -0.83,-0.45c-0.57,-0.88 -13.97,-21.24 -13.97,-29.08a14.8,14.8 0 0 1 29.61,0c0,7.84 -13.4,28.22 -14,29.08a1,1 0 0 1 -0.81,0.45zm0,-42.33a12.82,12.82 0 0 0 -12.8,12.8c0,6.18 9.84,22 12.8,26.69c3,-4.64 12.8,-20.51 12.8,-26.69a12.82,12.82 0 0 0 -12.8,-12.8z" class="cls-1"/>
  <circle stroke-width="2px" stroke-miterlimit="10" stroke="#ffffff" fill="#0fffff" id="svg_2" r="5.21" cy="16.97" cx="14.8" class="cls-2"/>
 </g>
</svg>