<svg width="64" height="64" xmlns="http://www.w3.org/2000/svg">

 <title/>
 <g>
  <title>background</title>
  <rect fill="none" id="canvas_background" height="402" width="582" y="-1" x="-1"/>
 </g>
 <g>
  <title>Layer 1</title>
  <rect stroke-width="2px" stroke-linejoin="round" stroke="#fc560a" fill="none" id="svg_1" y="1" x="1" width="62" ry="2" rx="2" height="62" class="cls-1"/>
  <line stroke-width="2px" stroke-linejoin="round" stroke="#fc560a" fill="none" id="svg_2" y2="9" y1="9" x2="63" x1="1" class="cls-1"/>
  <line stroke-width="2px" stroke-linejoin="round" stroke="#fc560a" fill="none" id="svg_3" y2="5" y1="5" x2="6" x1="4" class="cls-1"/>
  <line stroke-width="2px" stroke-linejoin="round" stroke="#fc560a" fill="none" id="svg_4" y2="5" y1="5" x2="10" x1="8" class="cls-1"/>
  <line stroke-width="2px" stroke-linejoin="round" stroke="#fc560a" fill="none" id="svg_5" y2="5" y1="5" x2="60" x1="58" class="cls-1"/>
  <circle stroke-width="2px" stroke-linejoin="round" stroke="#fc560a" fill="none" id="svg_6" r="18" cy="32" cx="32" class="cls-1"/>
  <line stroke-width="2px" stroke-linejoin="round" stroke="#fc560a" fill="none" id="svg_7" y2="55" y1="50" x2="32" x1="32" class="cls-1"/>
  <rect stroke-width="2px" stroke-linejoin="round" stroke="#fc560a" fill="none" id="svg_8" y="55" x="28" width="8" height="8" class="cls-1"/>
  <line stroke-width="2px" stroke-linejoin="round" stroke="#fc560a" fill="none" id="svg_9" y2="58" y1="58" x2="39" x1="25" class="cls-1"/>
  <circle stroke-width="2px" stroke-linejoin="round" stroke="#fc560a" fill="none" id="svg_10" r="13" cy="32" cx="32" class="cls-1"/>
  <polyline stroke-width="2px" stroke-linejoin="round" stroke="#fc560a" fill="none" id="svg_11" points="9 13 5 13 5 17" class="cls-1"/>
  <polyline stroke-width="2px" stroke-linejoin="round" stroke="#fc560a" fill="none" id="svg_12" points="55 59 59 59 59 55" class="cls-1"/>
  <polyline stroke-width="2px" stroke-linejoin="round" stroke="#fc560a" fill="none" id="svg_13" points="32 19 32 32 41 41" class="cls-1"/>
  <line stroke-width="2px" stroke-linejoin="round" stroke="#fc560a" fill="none" id="svg_14" y2="32" y1="32" x2="45" x1="32" class="cls-1"/>
  <polyline stroke-width="2px" stroke-linejoin="round" stroke="#fc560a" fill="none" id="svg_15" points="46 14 58 14 58 20 51 20" class="cls-1"/>
  <line stroke-width="2px" stroke-linejoin="round" stroke="#fc560a" fill="none" id="svg_16" y2="24" y1="24" x2="57" x1="59" class="cls-1"/>
  <line stroke-width="2px" stroke-linejoin="round" stroke="#fc560a" fill="none" id="svg_17" y2="24" y1="24" x2="53" x1="55" class="cls-1"/>
  <line stroke-width="2px" stroke-linejoin="round" stroke="#fc560a" fill="none" id="svg_18" y2="32" y1="32" x2="57" x1="59" class="cls-1"/>
  <line stroke-width="2px" stroke-linejoin="round" stroke="#fc560a" fill="none" id="svg_19" y2="28" y1="28" x2="59" x1="53" class="cls-1"/>
  <polyline stroke-width="2px" stroke-linejoin="round" stroke="#fc560a" fill="none" id="svg_20" points="19 50 6 50 6 44 13 44" class="cls-1"/>
  <line stroke-width="2px" stroke-linejoin="round" stroke="#fc560a" fill="none" id="svg_21" y2="40" y1="40" x2="9" x1="11" class="cls-1"/>
  <line stroke-width="2px" stroke-linejoin="round" stroke="#fc560a" fill="none" id="svg_22" y2="40" y1="40" x2="5" x1="7" class="cls-1"/>
  <line stroke-width="2px" stroke-linejoin="round" stroke="#fc560a" fill="none" id="svg_23" y2="32" y1="32" x2="5" x1="7" class="cls-1"/>
  <line stroke-width="2px" stroke-linejoin="round" stroke="#fc560a" fill="none" id="svg_24" y2="36" y1="36" x2="11" x1="5" class="cls-1"/>
 </g>
</svg>