<svg width="64" height="64" xmlns="http://www.w3.org/2000/svg">

 <title/>
 <g>
  <title>background</title>
  <rect fill="none" id="canvas_background" height="402" width="582" y="-1" x="-1"/>
 </g>
 <g>
  <title>Layer 1</title>
  <rect stroke-width="2px" stroke-linejoin="round" stroke="#09d1f4" fill="none" id="svg_1" y="1" x="1" width="62" ry="2" rx="2" height="62" class="cls-1"/>
  <line stroke-width="2px" stroke-linejoin="round" stroke="#09d1f4" fill="none" id="svg_2" y2="9" y1="9" x2="63" x1="1" class="cls-1"/>
  <line stroke-width="2px" stroke-linejoin="round" stroke="#09d1f4" fill="none" id="svg_3" y2="5" y1="5" x2="6" x1="4" class="cls-1"/>
  <line stroke-width="2px" stroke-linejoin="round" stroke="#09d1f4" fill="none" id="svg_4" y2="5" y1="5" x2="10" x1="8" class="cls-1"/>
  <line stroke-width="2px" stroke-linejoin="round" stroke="#09d1f4" fill="none" id="svg_5" y2="5" y1="5" x2="60" x1="58" class="cls-1"/>
  <polyline stroke-width="2px" stroke-linejoin="round" stroke="#09d1f4" fill="none" id="svg_6" points="48 29 48 38 57 38" class="cls-1"/>
  <polyline stroke-width="2px" stroke-linejoin="round" stroke="#09d1f4" fill="none" id="svg_7" points="57 63 57 38 48 29 28 29" class="cls-1"/>
  <circle stroke-width="2px" stroke-linejoin="round" stroke="#09d1f4" fill="none" id="svg_8" r="12" cy="41" cx="19" class="cls-1"/>
  <line stroke-width="2px" stroke-linejoin="round" stroke="#09d1f4" fill="none" id="svg_9" y2="56" y1="53" x2="19" x1="19" class="cls-1"/>
  <rect stroke-width="2px" stroke-linejoin="round" stroke="#09d1f4" fill="none" id="svg_10" y="56" x="16" width="6" height="7" class="cls-1"/>
  <path stroke-width="2px" stroke-linejoin="round" stroke="#09d1f4" fill="none" id="svg_11" d="m12,41a7,7 0 0 1 7,-7" class="cls-1"/>
  <line stroke-width="2px" stroke-linejoin="round" stroke="#09d1f4" fill="none" id="svg_12" y2="45" y1="43" x2="12" x1="12" class="cls-1"/>
  <polyline stroke-width="2px" stroke-linejoin="round" stroke="#09d1f4" fill="none" id="svg_13" points="26 58 30 58 35 53 40 53 43 56 47 56 53 50" class="cls-1"/>
  <polyline stroke-width="2px" stroke-linejoin="round" stroke="#09d1f4" fill="none" id="svg_14" points="49 49 49 44 42 44" class="cls-1"/>
  <polyline stroke-width="2px" stroke-linejoin="round" stroke="#09d1f4" fill="none" id="svg_15" points="34 44 39 44 39 48 33 48" class="cls-1"/>
  <line stroke-width="2px" stroke-linejoin="round" stroke="#09d1f4" fill="none" id="svg_16" y2="40" y1="40" x2="40" x1="34" class="cls-1"/>
  <line stroke-width="2px" stroke-linejoin="round" stroke="#09d1f4" fill="none" id="svg_17" y2="36" y1="36" x2="40" x1="34" class="cls-1"/>
  <rect stroke-width="2px" stroke-linejoin="round" stroke="#09d1f4" fill="none" id="svg_18" y="14" x="7" width="50" height="10" class="cls-1"/>
  <line stroke-width="2px" stroke-linejoin="round" stroke="#09d1f4" fill="none" id="svg_19" y2="19" y1="19" x2="33" x1="31" class="cls-1"/>
  <line stroke-width="2px" stroke-linejoin="round" stroke="#09d1f4" fill="none" id="svg_20" y2="19" y1="19" x2="37" x1="35" class="cls-1"/>
  <line stroke-width="2px" stroke-linejoin="round" stroke="#09d1f4" fill="none" id="svg_21" y2="19" y1="19" x2="29" x1="27" class="cls-1"/>
 </g>
</svg>