<svg width="310" height="74" viewBox="0 0 310 74" fill="none" xmlns="http://www.w3.org/2000/svg">
<path d="M78.6904 40.835H80.749C81.889 40.835 82.8851 40.6357 83.7373 40.2373C84.5895 39.8278 85.237 39.2744 85.6797 38.5771C86.1335 37.8688 86.3604 37.0553 86.3604 36.1367C86.3604 34.5872 85.9232 33.3753 85.0488 32.501C84.1745 31.6266 82.9183 31.1895 81.2803 31.1895C79.7308 31.1895 78.458 31.6488 77.4619 32.5674C76.4769 33.4749 75.9844 34.6758 75.9844 36.1699H73.9922C73.9922 34.9193 74.3076 33.7793 74.9385 32.75C75.5693 31.7096 76.4437 30.9072 77.5615 30.3428C78.6794 29.7783 79.9189 29.4961 81.2803 29.4961C83.4717 29.4961 85.1982 30.0938 86.46 31.2891C87.7217 32.4844 88.3525 34.1224 88.3525 36.2031C88.3525 37.3652 87.9818 38.4388 87.2402 39.4238C86.5098 40.3978 85.5026 41.1283 84.2188 41.6152C85.724 42.0358 86.8639 42.7607 87.6387 43.79C88.4134 44.8083 88.8008 46.0257 88.8008 47.4424C88.8008 49.512 88.1257 51.1777 86.7754 52.4395C85.4251 53.7012 83.6211 54.332 81.3633 54.332C79.9245 54.332 78.6019 54.0443 77.3955 53.4688C76.2002 52.8932 75.2705 52.0908 74.6064 51.0615C73.9535 50.0212 73.627 48.8148 73.627 47.4424H75.6191C75.6191 48.9808 76.1559 50.237 77.2295 51.2109C78.3031 52.1738 79.681 52.6553 81.3633 52.6553C83.0788 52.6553 84.4124 52.2181 85.3643 51.3438C86.3271 50.4583 86.8086 49.18 86.8086 47.5088C86.8086 45.8929 86.2884 44.6589 85.248 43.8066C84.2188 42.9544 82.6969 42.5283 80.6826 42.5283H78.6904V40.835ZM107.594 48.0566C107.594 46.7174 107.123 45.6605 106.183 44.8857C105.242 44.0999 103.521 43.3584 101.02 42.6611C98.5182 41.9528 96.6921 41.1836 95.541 40.3535C93.903 39.1803 93.084 37.6419 93.084 35.7383C93.084 33.89 93.8421 32.3903 95.3584 31.2393C96.8857 30.0771 98.8337 29.4961 101.202 29.4961C102.807 29.4961 104.24 29.806 105.502 30.4258C106.775 31.0456 107.76 31.9089 108.457 33.0156C109.154 34.1224 109.503 35.3564 109.503 36.7178H107.444C107.444 35.0687 106.88 33.7461 105.751 32.75C104.622 31.7428 103.106 31.2393 101.202 31.2393C99.3538 31.2393 97.8818 31.6543 96.7861 32.4844C95.6904 33.3034 95.1426 34.377 95.1426 35.7051C95.1426 36.9336 95.6351 37.9352 96.6201 38.71C97.6051 39.4847 99.1823 40.1709 101.352 40.7686C103.521 41.3551 105.164 41.9694 106.282 42.6113C107.4 43.2422 108.241 44.0003 108.806 44.8857C109.37 45.7712 109.652 46.8171 109.652 48.0234C109.652 49.9271 108.889 51.4544 107.361 52.6055C105.845 53.7565 103.842 54.332 101.352 54.332C99.6471 54.332 98.0811 54.0277 96.6533 53.4189C95.2367 52.8102 94.1576 51.958 93.416 50.8623C92.6855 49.7666 92.3203 48.5104 92.3203 47.0938H94.3623C94.3623 48.7982 94.9987 50.1429 96.2715 51.1279C97.5443 52.113 99.2376 52.6055 101.352 52.6055C103.233 52.6055 104.744 52.1904 105.884 51.3604C107.024 50.5303 107.594 49.429 107.594 48.0566ZM112.807 44.8525C112.807 42.0413 113.426 39.8167 114.666 38.1787C115.917 36.5296 117.621 35.7051 119.779 35.7051C122.203 35.7051 124.046 36.6292 125.308 38.4775L125.407 36.0371H127.267V60.9062H125.274V51.7754C123.968 53.4798 122.126 54.332 119.746 54.332C117.643 54.332 115.961 53.502 114.699 51.8418C113.438 50.1816 112.807 47.9404 112.807 45.1182V44.8525ZM114.815 45.2012C114.815 47.5254 115.28 49.3516 116.21 50.6797C117.151 51.9967 118.451 52.6553 120.111 52.6553C122.491 52.6553 124.212 51.6204 125.274 49.5508V40.752C124.776 39.6784 124.085 38.8538 123.199 38.2783C122.325 37.6917 121.307 37.3984 120.145 37.3984C118.473 37.3984 117.167 38.0625 116.227 39.3906C115.286 40.7077 114.815 42.6445 114.815 45.2012ZM144.117 51.7256C142.922 53.4632 141.013 54.332 138.39 54.332C136.475 54.332 135.02 53.7786 134.023 52.6719C133.027 51.554 132.518 49.9049 132.496 47.7246V36.0371H134.472V47.4756C134.472 50.8955 135.855 52.6055 138.622 52.6055C141.5 52.6055 143.32 51.4157 144.084 49.0361V36.0371H146.076V54H144.15L144.117 51.7256ZM162.595 54C162.396 53.4355 162.268 52.5999 162.213 51.4932C161.516 52.4007 160.625 53.1035 159.54 53.6016C158.466 54.0885 157.326 54.332 156.12 54.332C154.394 54.332 152.993 53.8506 151.92 52.8877C150.857 51.9248 150.326 50.7074 150.326 49.2354C150.326 47.4867 151.051 46.1032 152.501 45.085C153.962 44.0667 155.993 43.5576 158.594 43.5576H162.196V41.5156C162.196 40.2318 161.798 39.2246 161.001 38.4941C160.215 37.7526 159.064 37.3818 157.548 37.3818C156.164 37.3818 155.019 37.736 154.111 38.4443C153.204 39.1527 152.75 40.0049 152.75 41.001L150.758 40.9844C150.758 39.5566 151.422 38.3226 152.75 37.2822C154.078 36.2308 155.711 35.7051 157.647 35.7051C159.651 35.7051 161.228 36.2087 162.379 37.2158C163.541 38.2119 164.139 39.6064 164.172 41.3994V49.8994C164.172 51.637 164.354 52.9375 164.72 53.8008V54H162.595ZM156.353 52.5723C157.681 52.5723 158.865 52.2513 159.905 51.6094C160.957 50.9674 161.72 50.1097 162.196 49.0361V45.085H158.644C156.662 45.1071 155.113 45.4723 153.995 46.1807C152.877 46.8779 152.318 47.8408 152.318 49.0693C152.318 50.0765 152.689 50.9121 153.431 51.5762C154.183 52.2402 155.157 52.5723 156.353 52.5723ZM177.785 37.7305C177.365 37.653 176.916 37.6143 176.44 37.6143C175.201 37.6143 174.149 37.9629 173.286 38.6602C172.434 39.3464 171.825 40.348 171.46 41.665V54H169.484V36.0371H171.427L171.46 38.8926C172.511 36.7676 174.199 35.7051 176.523 35.7051C177.077 35.7051 177.514 35.777 177.835 35.9209L177.785 37.7305ZM187.563 54.332C186.036 54.332 184.653 53.9557 183.413 53.2031C182.185 52.4505 181.227 51.4046 180.541 50.0654C179.855 48.7152 179.512 47.2044 179.512 45.5332V44.8193C179.512 43.0928 179.844 41.5378 180.508 40.1543C181.183 38.7708 182.118 37.6862 183.313 36.9004C184.509 36.1035 185.804 35.7051 187.198 35.7051C189.379 35.7051 191.105 36.4521 192.378 37.9463C193.662 39.4294 194.304 41.4603 194.304 44.0391V45.1514H181.487V45.5332C181.487 47.5697 182.068 49.2686 183.23 50.6299C184.404 51.9801 185.876 52.6553 187.646 52.6553C188.709 52.6553 189.644 52.4616 190.452 52.0742C191.271 51.6868 192.013 51.0671 192.677 50.2148L193.922 51.1611C192.461 53.2751 190.341 54.332 187.563 54.332ZM187.198 37.3984C185.704 37.3984 184.442 37.9463 183.413 39.042C182.395 40.1377 181.775 41.6097 181.554 43.458H192.328V43.2422C192.273 41.5156 191.78 40.11 190.851 39.0254C189.921 37.9408 188.703 37.3984 187.198 37.3984ZM198.124 43.3359L202.057 52.7476L206.004 43.3359H207.206V54H206.305V49.3564L206.378 44.5957L202.408 54H201.712L197.757 44.6323L197.831 49.3271V54H196.93V43.3359H198.124ZM214.706 54C214.618 53.751 214.562 53.3823 214.537 52.894C214.229 53.2944 213.836 53.6045 213.358 53.8242C212.884 54.0391 212.381 54.1465 211.849 54.1465C211.087 54.1465 210.47 53.9341 209.996 53.5093C209.527 53.0845 209.293 52.5474 209.293 51.8979C209.293 51.1265 209.613 50.5161 210.252 50.0669C210.897 49.6177 211.793 49.3931 212.94 49.3931H214.53V48.4922C214.53 47.9258 214.354 47.4814 214.002 47.1592C213.656 46.832 213.148 46.6685 212.479 46.6685C211.869 46.6685 211.363 46.8247 210.963 47.1372C210.562 47.4497 210.362 47.8257 210.362 48.2651L209.483 48.2578C209.483 47.6279 209.776 47.0835 210.362 46.6245C210.948 46.1606 211.668 45.9287 212.523 45.9287C213.407 45.9287 214.103 46.1509 214.61 46.5952C215.123 47.0347 215.387 47.6499 215.401 48.4409V52.1909C215.401 52.9575 215.482 53.5312 215.643 53.9121V54H214.706ZM211.952 53.3701C212.538 53.3701 213.06 53.2285 213.519 52.9453C213.983 52.6621 214.32 52.2837 214.53 51.8101V50.0669H212.962C212.088 50.0767 211.405 50.2378 210.912 50.5503C210.418 50.8579 210.172 51.2827 210.172 51.8247C210.172 52.269 210.335 52.6377 210.663 52.9307C210.995 53.2236 211.424 53.3701 211.952 53.3701ZM218.58 46.0752L218.609 47.4302C218.907 46.9419 219.278 46.5708 219.723 46.3169C220.167 46.0581 220.658 45.9287 221.195 45.9287C222.044 45.9287 222.677 46.168 223.092 46.6465C223.507 47.125 223.717 47.8428 223.722 48.7998V54H222.85V48.7925C222.845 48.0845 222.694 47.5571 222.396 47.2104C222.103 46.8638 221.632 46.6904 220.982 46.6904C220.44 46.6904 219.959 46.8613 219.54 47.2031C219.125 47.54 218.817 47.9966 218.617 48.5728V54H217.745V46.0752H218.58ZM230.995 54C230.907 53.751 230.851 53.3823 230.826 52.894C230.519 53.2944 230.125 53.6045 229.647 53.8242C229.173 54.0391 228.67 54.1465 228.138 54.1465C227.376 54.1465 226.759 53.9341 226.285 53.5093C225.816 53.0845 225.582 52.5474 225.582 51.8979C225.582 51.1265 225.902 50.5161 226.542 50.0669C227.186 49.6177 228.082 49.3931 229.229 49.3931H230.819V48.4922C230.819 47.9258 230.643 47.4814 230.292 47.1592C229.945 46.832 229.437 46.6685 228.768 46.6685C228.158 46.6685 227.652 46.8247 227.252 47.1372C226.852 47.4497 226.651 47.8257 226.651 48.2651L225.772 48.2578C225.772 47.6279 226.065 47.0835 226.651 46.6245C227.237 46.1606 227.958 45.9287 228.812 45.9287C229.696 45.9287 230.392 46.1509 230.899 46.5952C231.412 47.0347 231.676 47.6499 231.69 48.4409V52.1909C231.69 52.9575 231.771 53.5312 231.932 53.9121V54H230.995ZM228.241 53.3701C228.827 53.3701 229.349 53.2285 229.808 52.9453C230.272 52.6621 230.609 52.2837 230.819 51.8101V50.0669H229.251C228.377 50.0767 227.694 50.2378 227.201 50.5503C226.708 50.8579 226.461 51.2827 226.461 51.8247C226.461 52.269 226.625 52.6377 226.952 52.9307C227.284 53.2236 227.713 53.3701 228.241 53.3701ZM233.683 49.9644C233.683 48.7241 233.956 47.7427 234.503 47.02C235.055 46.2925 235.802 45.9287 236.744 45.9287C237.823 45.9287 238.644 46.3584 239.205 47.2178L239.249 46.0752H240.069V53.8389C240.069 54.8594 239.784 55.6675 239.212 56.2632C238.641 56.8589 237.867 57.1567 236.891 57.1567C236.339 57.1567 235.812 57.0322 235.309 56.7832C234.811 56.5391 234.417 56.2119 234.129 55.8018L234.62 55.2744C235.24 56.0361 235.978 56.417 236.832 56.417C237.564 56.417 238.136 56.1997 238.546 55.7651C238.956 55.3354 239.168 54.7373 239.183 53.9707V52.9746C238.622 53.7559 237.804 54.1465 236.729 54.1465C235.812 54.1465 235.074 53.7803 234.518 53.0479C233.961 52.3154 233.683 51.3267 233.683 50.0815V49.9644ZM234.569 50.1182C234.569 51.1289 234.771 51.9272 235.177 52.5132C235.582 53.0942 236.153 53.3848 236.891 53.3848C237.97 53.3848 238.734 52.9014 239.183 51.9346V48.2505C238.978 47.7427 238.683 47.3569 238.297 47.0933C237.911 46.8247 237.447 46.6904 236.905 46.6904C236.168 46.6904 235.594 46.981 235.184 47.562C234.774 48.1382 234.569 48.9902 234.569 50.1182ZM245.423 54.1465C244.75 54.1465 244.139 53.9805 243.592 53.6484C243.05 53.3164 242.628 52.855 242.325 52.2642C242.022 51.6685 241.871 51.002 241.871 50.2646V49.9497C241.871 49.188 242.018 48.502 242.311 47.8916C242.608 47.2812 243.021 46.8027 243.548 46.4561C244.076 46.1045 244.647 45.9287 245.262 45.9287C246.224 45.9287 246.986 46.2583 247.547 46.9175C248.114 47.5718 248.397 48.4678 248.397 49.6055V50.0962H242.743V50.2646C242.743 51.1631 242.999 51.9126 243.512 52.5132C244.029 53.1089 244.679 53.4067 245.46 53.4067C245.929 53.4067 246.341 53.3213 246.698 53.1504C247.059 52.9795 247.386 52.7061 247.679 52.3301L248.229 52.7476C247.584 53.6802 246.649 54.1465 245.423 54.1465ZM245.262 46.6758C244.603 46.6758 244.046 46.9175 243.592 47.4009C243.143 47.8843 242.87 48.5337 242.772 49.3491H247.525V49.2539C247.501 48.4922 247.284 47.8721 246.874 47.3936C246.463 46.915 245.926 46.6758 245.262 46.6758ZM250.902 46.0752L250.931 47.3643C251.224 46.8857 251.59 46.5269 252.03 46.2876C252.469 46.0483 252.958 45.9287 253.495 45.9287C254.745 45.9287 255.538 46.4414 255.875 47.4668C256.158 46.9736 256.537 46.5952 257.01 46.3315C257.484 46.063 258.006 45.9287 258.578 45.9287C260.277 45.9287 261.144 46.8564 261.178 48.7119V54H260.299V48.7778C260.294 48.0698 260.14 47.5449 259.837 47.2031C259.54 46.8613 259.051 46.6904 258.373 46.6904C257.743 46.7002 257.21 46.9053 256.776 47.3057C256.341 47.7012 256.1 48.1846 256.051 48.7559V54H255.172V48.7119C255.167 48.0332 255.006 47.5278 254.688 47.1958C254.376 46.8589 253.893 46.6904 253.238 46.6904C252.687 46.6904 252.213 46.8491 251.817 47.1665C251.422 47.479 251.129 47.9453 250.938 48.5654V54H250.06V46.0752H250.902ZM266.473 54.1465C265.799 54.1465 265.189 53.9805 264.642 53.6484C264.1 53.3164 263.678 52.855 263.375 52.2642C263.072 51.6685 262.921 51.002 262.921 50.2646V49.9497C262.921 49.188 263.067 48.502 263.36 47.8916C263.658 47.2812 264.071 46.8027 264.598 46.4561C265.125 46.1045 265.697 45.9287 266.312 45.9287C267.274 45.9287 268.036 46.2583 268.597 46.9175C269.164 47.5718 269.447 48.4678 269.447 49.6055V50.0962H263.792V50.2646C263.792 51.1631 264.049 51.9126 264.562 52.5132C265.079 53.1089 265.729 53.4067 266.51 53.4067C266.979 53.4067 267.391 53.3213 267.748 53.1504C268.109 52.9795 268.436 52.7061 268.729 52.3301L269.278 52.7476C268.634 53.6802 267.699 54.1465 266.473 54.1465ZM266.312 46.6758C265.653 46.6758 265.096 46.9175 264.642 47.4009C264.193 47.8843 263.919 48.5337 263.822 49.3491H268.575V49.2539C268.551 48.4922 268.333 47.8721 267.923 47.3936C267.513 46.915 266.976 46.6758 266.312 46.6758ZM271.988 46.0752L272.018 47.4302C272.315 46.9419 272.687 46.5708 273.131 46.3169C273.575 46.0581 274.066 45.9287 274.603 45.9287C275.453 45.9287 276.085 46.168 276.5 46.6465C276.915 47.125 277.125 47.8428 277.13 48.7998V54H276.258V48.7925C276.253 48.0845 276.102 47.5571 275.804 47.2104C275.511 46.8638 275.04 46.6904 274.391 46.6904C273.849 46.6904 273.368 46.8613 272.948 47.2031C272.533 47.54 272.225 47.9966 272.025 48.5728V54H271.153V46.0752H271.988ZM280.763 44.0464V46.0752H282.403V46.793H280.763V52.0737C280.763 52.5132 280.841 52.8403 280.997 53.0552C281.158 53.27 281.424 53.3774 281.795 53.3774C281.942 53.3774 282.179 53.353 282.506 53.3042L282.542 54.022C282.313 54.105 282 54.1465 281.605 54.1465C281.004 54.1465 280.567 53.9731 280.294 53.6265C280.021 53.2749 279.884 52.7598 279.884 52.0811V46.793H278.426V46.0752H279.884V44.0464H280.763Z" fill="white"/>
<path d="M1.61466 55.9667L1.03108 26.8227L33.7835 41.0045V72.3677L1.61466 55.9667Z" stroke="white" stroke-width="2"/>
<path d="M2.25945 25.4004L34.8361 11.1L65.8224 25.6161L34.8265 39.3886L2.25945 25.4004Z" stroke="white" stroke-width="2"/>
<path d="M35.7834 72.3258V40.9965L67 27.0633V55.5176L35.7834 72.3258Z" stroke="white" stroke-width="2"/>
</svg>
