<svg width="64" height="64" xmlns="http://www.w3.org/2000/svg">

 <g>
  <title>background</title>
  <rect fill="none" id="canvas_background" height="402" width="582" y="-1" x="-1"/>
 </g>
 <g>
  <title>Layer 1</title>
  <path fill="#0ef712" stroke="#02871a" stroke-opacity="0.01" id="svg_2" d="m58,31l-25,0l0,-25c0,-2.757 -2.243,-5 -5,-5l-22,0c-2.757,0 -5,2.243 -5,5l0,25l0,1l0,26c0,2.757 2.243,5 5,5l26,0l1,0l25,0c2.757,0 5,-2.243 5,-5l0,-22c0,-2.757 -2.243,-5 -5,-5zm-55,-25c0,-1.654 1.346,-3 3,-3l22,0c1.654,0 3,1.346 3,3l0,25.007l-6.542,0.022c1.249,-1.843 1.764,-4.086 1.452,-6.317c-0.557,-3.981 -3.864,-7.2 -7.864,-7.653c-2.566,-0.286 -5.13,0.521 -7.039,2.228c-1.911,1.706 -3.007,4.152 -3.007,6.713c0,1.802 0.534,3.541 1.526,5l-6.526,0l0,-25zm28,48.474l0,6.526l-25,0c-1.654,0 -3,-1.346 -3,-3l0,-25l6.526,0c0.746,0 1.427,-0.411 1.778,-1.073c0.342,-0.646 0.302,-1.419 -0.104,-2.019c-0.785,-1.157 -1.2,-2.509 -1.2,-3.908c0,-1.991 0.853,-3.895 2.339,-5.223c1.507,-1.346 3.455,-1.959 5.481,-1.731c3.107,0.353 5.676,2.852 6.109,5.943c0.243,1.74 -0.157,3.486 -1.127,4.917c-0.407,0.601 -0.448,1.376 -0.105,2.022c0.35,0.662 1.031,1.072 1.776,1.072l6.527,0l0,6.526c0,0.745 0.41,1.425 1.07,1.775c0.646,0.343 1.42,0.303 2.023,-0.104c1.432,-0.971 3.181,-1.372 4.917,-1.127c3.092,0.433 5.591,3.001 5.942,6.108c0.229,2.028 -0.385,3.975 -1.731,5.481c-1.326,1.488 -3.23,2.341 -5.221,2.341c-1.4,0 -2.751,-0.415 -3.908,-1.198c-0.599,-0.407 -1.373,-0.447 -2.019,-0.105c-0.662,0.35 -1.073,1.032 -1.073,1.777zm30,3.526c0,1.654 -1.346,3 -3,3l-25.007,0l-0.024,-6.543c1.49,1.01 3.23,1.543 5.031,1.543c2.56,0 5.007,-1.096 6.714,-3.007c1.706,-1.908 2.517,-4.474 2.227,-7.038c-0.453,-4 -3.671,-7.308 -7.652,-7.864c-2.231,-0.313 -4.474,0.203 -6.289,1.436l0,-6.527l25,0c1.654,0 3,1.346 3,3l0,22z"/>
  <path fill="#0ef712" stroke="#02871a" stroke-opacity="0.01" id="svg_3" d="m38.585,12c1.289,1.289 3.541,1.289 4.829,0l0.586,-0.586l8.586,8.586l-0.586,0.586c-0.645,0.646 -1,1.503 -1,2.414s0.355,1.769 1,2.414l2.585,2.586c0.645,0.645 1.502,1 2.415,1s1.77,-0.355 2.414,-1l1.879,-1.879c1.085,-1.085 1.707,-2.587 1.707,-4.121s-0.622,-3.036 -1.707,-4.121l-15.172,-15.172c-1.1,-1.101 -2.564,-1.707 -4.121,-1.707s-3.021,0.606 -4.121,1.707l-1.879,1.879c-0.645,0.645 -1,1.503 -1,2.414s0.355,1.769 1,2.414l2.585,2.586zm17.415,14.586l-2.585,-2.586c-0.268,-0.268 -0.415,-0.622 -0.415,-1s0.147,-0.732 0.414,-1l0.586,-0.586l4.586,4.586l-0.586,0.586c-0.534,0.535 -1.466,0.535 -2,0zm-11.293,-22.465l15.172,15.172c0.712,0.713 1.121,1.699 1.121,2.707c0,0.95 -0.374,1.873 -1.012,2.574l-4.574,-4.574l-0.707,-0.707l-10,-10l-0.707,-0.707l-4.573,-4.573c1.463,-1.324 3.875,-1.296 5.28,0.108zm-7.293,1.879l0.586,-0.586l4.586,4.586l-0.586,0.586c-0.533,0.535 -1.465,0.535 -2,0l-2.585,-2.586c-0.268,-0.268 -0.415,-0.622 -0.415,-1s0.147,-0.732 0.414,-1z"/>
  <rect fill="#0ef712" stroke="#02871a" stroke-opacity="0.01" id="svg_4" y="57" x="16" width="2" height="2"/>
  <path fill="#0ef712" stroke="#02871a" stroke-opacity="0.01" id="svg_5" d="m17.114,35.001c-0.039,0 -0.077,-0.001 -0.116,-0.001c-2.116,0 -4.106,0.815 -5.615,2.304c-1.537,1.515 -2.383,3.538 -2.383,5.696c0,1.646 0.497,3.227 1.437,4.572l1.64,-1.145c-0.705,-1.008 -1.077,-2.194 -1.077,-3.427c0,-1.618 0.635,-3.136 1.787,-4.272s2.671,-1.758 4.298,-1.727c3.162,0.044 5.87,2.752 5.914,5.913c0.039,2.829 -1.933,5.328 -4.688,5.942c-1.339,0.299 -2.311,1.524 -2.311,2.914l0,3.23l2,0l0,-3.23c0,-0.46 0.314,-0.864 0.747,-0.961c3.675,-0.819 6.305,-4.151 6.253,-7.922c-0.06,-4.288 -3.598,-7.826 -7.886,-7.886z"/>
  <path fill="#0ef712" stroke="#02871a" stroke-opacity="0.01" id="svg_6" d="m42,19c0,1.654 1.346,3 3,3s3,-1.346 3,-3s-1.346,-3 -3,-3s-3,1.346 -3,3zm4,0c0,0.552 -0.449,1 -1,1s-1,-0.448 -1,-1s0.449,-1 1,-1s1,0.448 1,1z"/>
  <path fill="#0ef712" stroke="#02871a" stroke-opacity="0.01" id="svg_7" d="m36,25c0,1.654 1.346,3 3,3s3,-1.346 3,-3s-1.346,-3 -3,-3s-3,1.346 -3,3zm4,0c0,0.552 -0.449,1 -1,1s-1,-0.448 -1,-1s0.449,-1 1,-1s1,0.448 1,1z"/>
 </g>
</svg>